<?xml version="1.0" standalone="no"?>
<!DOCTYPE svg PUBLIC "-//W3C//DTD SVG 20010904//EN"
 "http://www.w3.org/TR/2001/REC-SVG-20010904/DTD/svg10.dtd">
<svg version="1.0" xmlns="http://www.w3.org/2000/svg"
 width="700.000000pt" height="700.000000pt" viewBox="0 0 700.000000 700.000000"
 preserveAspectRatio="xMidYMid meet">
<metadata>
Created by potrace 1.11, written by Peter Selinger 2001-2013
</metadata>
<g transform="translate(0.000000,700.000000) scale(0.100000,-0.100000)"
fill="#000000" stroke="none">
<path d="M2319 6697 c-83 -28 -169 -93 -214 -160 -23 -35 -113 -263 -270 -682
-130 -347 -242 -646 -250 -665 -8 -19 -115 -305 -239 -635 -123 -330 -227
-608 -231 -617 -7 -16 -45 -18 -529 -21 -286 -1 -530 -6 -541 -9 -11 -4 -26
-7 -32 -7 -10 -1 -13 -88 -13 -399 l0 -399 37 -11 c26 -8 240 -12 729 -12 665
0 695 1 757 20 83 26 171 91 219 161 26 38 85 181 198 484 88 237 167 446 175
465 8 19 35 91 60 160 25 69 50 134 54 145 5 11 46 119 90 240 45 121 85 227
88 235 7 18 14 -2 179 -533 13 -42 35 -112 48 -155 13 -42 47 -150 75 -239 28
-90 73 -234 100 -320 27 -87 75 -239 106 -338 67 -215 130 -416 157 -505 11
-36 22 -72 25 -80 3 -8 7 -19 9 -25 1 -5 59 -192 129 -415 70 -223 137 -439
150 -480 13 -41 58 -185 100 -320 88 -280 154 -491 224 -717 94 -303 111 -348
145 -399 82 -120 213 -186 363 -180 130 5 245 64 318 164 40 55 45 66 269 667
70 187 162 430 203 540 42 110 91 243 111 295 62 172 138 373 151 405 5 11 18
47 31 80 12 33 25 69 30 80 5 11 43 115 85 230 43 116 83 222 90 237 7 15 16
41 20 58 4 16 10 32 15 35 4 2 315 5 690 5 459 0 697 4 727 11 l43 11 0 398 0
398 -42 11 c-30 7 -307 10 -923 8 l-880 -2 -55 -22 c-76 -31 -148 -89 -192
-153 -28 -40 -93 -203 -243 -605 -113 -302 -210 -559 -214 -570 -5 -11 -46
-119 -91 -240 -81 -221 -85 -232 -112 -294 l-14 -33 -33 108 c-19 60 -51 163
-72 229 -20 66 -60 192 -87 280 -28 88 -73 233 -101 323 -28 89 -74 235 -102
325 -125 400 -150 481 -194 622 -25 83 -50 161 -55 175 -5 14 -29 91 -54 172
-25 82 -67 214 -93 295 -26 82 -48 153 -49 158 -1 6 -36 120 -79 255 -43 135
-78 250 -79 255 -1 6 -24 78 -50 160 -91 288 -104 331 -141 450 -20 66 -39
127 -42 135 -3 8 -7 20 -8 25 -11 46 -161 507 -172 530 -89 176 -315 266 -504
202z"/>
</g>
</svg>
